<?xml version="1.0" encoding="UTF-8"?>
<svg xmlns="http://www.w3.org/2000/svg" xmlns:xlink="http://www.w3.org/1999/xlink" width="201pt" height="67pt" viewBox="0 0 201 67" version="1.1">
<g id="surface1">
<path style=" stroke:none;fill-rule:nonzero;fill:rgb(65.098039%,65.098039%,65.098039%);fill-opacity:1;" d="M 184.476562 0 L 15.96875 0 C 15.355469 0 14.75 0 14.136719 0.00390625 C 13.625 0.0078125 13.117188 0.015625 12.597656 0.0234375 C 11.472656 0.0390625 10.351562 0.136719 9.242188 0.320312 C 8.132812 0.507812 7.058594 0.863281 6.058594 1.371094 C 5.054688 1.882812 4.140625 2.550781 3.347656 3.34375 C 2.546875 4.136719 1.878906 5.054688 1.371094 6.058594 C 0.863281 7.0625 0.511719 8.140625 0.324219 9.25 C 0.140625 10.355469 0.0390625 11.476562 0.0234375 12.601562 C 0.0117188 13.117188 0.0078125 13.628906 0 14.144531 L 0 52.859375 C 0.0078125 53.378906 0.0117188 53.882812 0.0234375 54.40625 C 0.0390625 55.527344 0.140625 56.648438 0.324219 57.757812 C 0.507812 58.867188 0.863281 59.945312 1.371094 60.949219 C 1.878906 61.949219 2.546875 62.863281 3.347656 63.652344 C 4.136719 64.449219 5.054688 65.117188 6.058594 65.625 C 7.058594 66.136719 8.132812 66.492188 9.242188 66.683594 C 10.351562 66.863281 11.472656 66.964844 12.597656 66.980469 C 13.117188 66.988281 13.625 66.996094 14.136719 66.996094 C 14.75 67 15.355469 67 15.96875 67 L 184.476562 67 C 185.078125 67 185.6875 67 186.292969 66.996094 C 186.800781 66.996094 187.324219 66.988281 187.835938 66.980469 C 188.957031 66.964844 190.078125 66.867188 191.1875 66.683594 C 192.296875 66.492188 193.375 66.132812 194.382812 65.625 C 195.382812 65.117188 196.300781 64.449219 197.089844 63.652344 C 197.886719 62.859375 198.554688 61.949219 199.070312 60.949219 C 199.574219 59.945312 199.925781 58.867188 200.105469 57.757812 C 200.292969 56.648438 200.398438 55.527344 200.417969 54.40625 C 200.425781 53.882812 200.425781 53.378906 200.425781 52.859375 C 200.4375 52.253906 200.4375 51.648438 200.4375 51.027344 L 200.4375 15.972656 C 200.4375 15.359375 200.4375 14.75 200.425781 14.144531 C 200.425781 13.628906 200.425781 13.117188 200.417969 12.601562 C 200.398438 11.476562 200.292969 10.355469 200.105469 9.25 C 199.925781 8.140625 199.574219 7.0625 199.070312 6.058594 C 198.035156 4.046875 196.394531 2.40625 194.382812 1.371094 C 193.375 0.863281 192.296875 0.507812 191.1875 0.320312 C 190.078125 0.136719 188.957031 0.0351562 187.835938 0.0234375 C 187.324219 0.015625 186.800781 0.0078125 186.292969 0.00390625 C 185.6875 0 185.078125 0 184.476562 0 Z M 184.476562 0 "/>
<path style=" stroke:none;fill-rule:nonzero;fill:rgb(0%,0%,0%);fill-opacity:1;" d="M 14.144531 65.535156 C 13.632812 65.535156 13.136719 65.527344 12.628906 65.515625 C 11.582031 65.503906 10.535156 65.410156 9.5 65.242188 C 8.535156 65.078125 7.597656 64.769531 6.722656 64.324219 C 5.859375 63.886719 5.066406 63.3125 4.382812 62.621094 C 3.691406 61.941406 3.113281 61.152344 2.675781 60.285156 C 2.230469 59.410156 1.925781 58.472656 1.765625 57.507812 C 1.59375 56.46875 1.5 55.417969 1.488281 54.367188 C 1.476562 54.015625 1.460938 52.835938 1.460938 52.835938 L 1.460938 14.144531 C 1.460938 14.144531 1.476562 12.984375 1.488281 12.644531 C 1.5 11.59375 1.59375 10.546875 1.765625 9.511719 C 1.925781 8.542969 2.230469 7.601562 2.675781 6.726562 C 3.109375 5.859375 3.683594 5.066406 4.375 4.382812 C 5.0625 3.695312 5.855469 3.117188 6.722656 2.671875 C 7.597656 2.230469 8.53125 1.925781 9.492188 1.761719 C 10.53125 1.589844 11.582031 1.5 12.632812 1.484375 L 14.144531 1.464844 L 186.285156 1.464844 L 187.8125 1.488281 C 188.855469 1.5 189.894531 1.589844 190.925781 1.757812 C 191.898438 1.925781 192.84375 2.234375 193.722656 2.675781 C 195.460938 3.574219 196.878906 4.988281 197.769531 6.730469 C 198.207031 7.601562 198.507812 8.53125 198.664062 9.492188 C 198.839844 10.539062 198.9375 11.59375 198.957031 12.652344 C 198.960938 13.128906 198.960938 13.636719 198.960938 14.144531 C 198.976562 14.773438 198.976562 15.371094 198.976562 15.972656 L 198.976562 51.027344 C 198.976562 51.636719 198.976562 52.230469 198.960938 52.828125 C 198.960938 53.375 198.960938 53.875 198.957031 54.386719 C 198.9375 55.425781 198.839844 56.464844 198.667969 57.492188 C 198.511719 58.464844 198.207031 59.40625 197.765625 60.289062 C 197.324219 61.148438 196.75 61.929688 196.0625 62.609375 C 195.378906 63.304688 194.585938 63.882812 193.71875 64.324219 C 192.839844 64.769531 191.898438 65.078125 190.925781 65.242188 C 189.890625 65.414062 188.84375 65.503906 187.792969 65.515625 C 187.304688 65.527344 186.789062 65.535156 186.292969 65.535156 L 184.476562 65.539062 Z M 14.144531 65.535156 "/>
<path style=" stroke:none;fill-rule:nonzero;fill:rgb(100%,100%,100%);fill-opacity:1;" d="M 41.488281 34.003906 C 41.523438 31.160156 43.015625 28.539062 45.433594 27.050781 C 43.902344 24.859375 41.421875 23.519531 38.75 23.433594 C 35.9375 23.140625 33.210938 25.117188 31.777344 25.117188 C 30.316406 25.117188 28.109375 23.464844 25.734375 23.511719 C 22.605469 23.613281 19.761719 25.347656 18.242188 28.082031 C 15 33.691406 17.417969 41.933594 20.519531 46.46875 C 22.074219 48.6875 23.886719 51.167969 26.261719 51.078125 C 28.585938 50.984375 29.453125 49.597656 32.257812 49.597656 C 35.035156 49.597656 35.851562 51.078125 38.273438 51.023438 C 40.765625 50.984375 42.335938 48.792969 43.835938 46.550781 C 44.949219 44.96875 45.808594 43.222656 46.378906 41.371094 C 43.417969 40.121094 41.492188 37.21875 41.488281 34.003906 Z M 41.488281 34.003906 "/>
<path style=" stroke:none;fill-rule:nonzero;fill:rgb(100%,100%,100%);fill-opacity:1;" d="M 36.914062 20.453125 C 38.273438 18.820312 38.941406 16.722656 38.777344 14.605469 C 36.703125 14.824219 34.785156 15.816406 33.40625 17.386719 C 32.046875 18.933594 31.355469 20.960938 31.492188 23.015625 C 33.59375 23.039062 35.59375 22.09375 36.914062 20.453125 Z M 36.914062 20.453125 "/>
<path style=" stroke:none;fill-rule:nonzero;fill:rgb(100%,100%,100%);fill-opacity:1;" d="M 70.855469 45.457031 L 62.929688 45.457031 L 61.023438 51.082031 L 57.664062 51.082031 L 65.175781 30.28125 L 68.664062 30.28125 L 76.175781 51.082031 L 72.757812 51.082031 Z M 63.75 42.863281 L 70.035156 42.863281 L 66.933594 33.742188 L 66.847656 33.742188 Z M 63.75 42.863281 "/>
<path style=" stroke:none;fill-rule:nonzero;fill:rgb(100%,100%,100%);fill-opacity:1;" d="M 92.390625 43.5 C 92.390625 48.210938 89.871094 51.238281 86.0625 51.238281 C 84.097656 51.34375 82.242188 50.3125 81.292969 48.585938 L 81.21875 48.585938 L 81.21875 56.097656 L 78.109375 56.097656 L 78.109375 35.914062 L 81.121094 35.914062 L 81.121094 38.4375 L 81.179688 38.4375 C 82.171875 36.722656 84.027344 35.695312 86.007812 35.757812 C 89.855469 35.757812 92.390625 38.800781 92.390625 43.5 Z M 89.191406 43.5 C 89.191406 40.429688 87.605469 38.410156 85.183594 38.410156 C 82.808594 38.410156 81.207031 40.472656 81.207031 43.5 C 81.207031 46.554688 82.808594 48.601562 85.183594 48.601562 C 87.605469 48.601562 89.191406 46.597656 89.191406 43.5 Z M 89.191406 43.5 "/>
<path style=" stroke:none;fill-rule:nonzero;fill:rgb(100%,100%,100%);fill-opacity:1;" d="M 109.082031 43.5 C 109.082031 48.210938 106.5625 51.238281 102.753906 51.238281 C 100.789062 51.34375 98.933594 50.3125 97.984375 48.585938 L 97.910156 48.585938 L 97.910156 56.097656 L 94.796875 56.097656 L 94.796875 35.914062 L 97.8125 35.914062 L 97.8125 38.4375 L 97.867188 38.4375 C 98.863281 36.722656 100.71875 35.695312 102.699219 35.757812 C 106.546875 35.757812 109.082031 38.800781 109.082031 43.5 Z M 105.882812 43.5 C 105.882812 40.429688 104.296875 38.410156 101.875 38.410156 C 99.5 38.410156 97.898438 40.472656 97.898438 43.5 C 97.898438 46.554688 99.5 48.601562 101.875 48.601562 C 104.296875 48.601562 105.882812 46.597656 105.882812 43.5 Z M 105.882812 43.5 "/>
<path style=" stroke:none;fill-rule:nonzero;fill:rgb(100%,100%,100%);fill-opacity:1;" d="M 120.113281 45.285156 C 120.34375 47.347656 122.347656 48.703125 125.085938 48.703125 C 127.710938 48.703125 129.597656 47.347656 129.597656 45.488281 C 129.597656 43.875 128.460938 42.90625 125.765625 42.246094 L 123.070312 41.59375 C 119.25 40.671875 117.476562 38.886719 117.476562 35.988281 C 117.476562 32.398438 120.605469 29.933594 125.046875 29.933594 C 129.441406 29.933594 132.453125 32.398438 132.554688 35.988281 L 129.414062 35.988281 C 129.222656 33.914062 127.507812 32.660156 125 32.660156 C 122.492188 32.660156 120.777344 33.925781 120.777344 35.773438 C 120.777344 37.242188 121.875 38.109375 124.554688 38.769531 L 126.847656 39.332031 C 131.113281 40.34375 132.886719 42.054688 132.886719 45.097656 C 132.886719 48.992188 129.789062 51.425781 124.855469 51.425781 C 120.246094 51.425781 117.128906 49.046875 116.929688 45.285156 Z M 120.113281 45.285156 "/>
<path style=" stroke:none;fill-rule:nonzero;fill:rgb(100%,100%,100%);fill-opacity:1;" d="M 139.605469 32.328125 L 139.605469 35.914062 L 142.488281 35.914062 L 142.488281 38.382812 L 139.605469 38.382812 L 139.605469 46.742188 C 139.605469 48.039062 140.183594 48.644531 141.449219 48.644531 C 141.792969 48.640625 142.132812 48.617188 142.472656 48.574219 L 142.472656 51.023438 C 141.902344 51.128906 141.324219 51.179688 140.746094 51.167969 C 137.675781 51.167969 136.476562 50.015625 136.476562 47.074219 L 136.476562 38.382812 L 134.273438 38.382812 L 134.273438 35.914062 L 136.476562 35.914062 L 136.476562 32.328125 Z M 139.605469 32.328125 "/>
<path style=" stroke:none;fill-rule:nonzero;fill:rgb(100%,100%,100%);fill-opacity:1;" d="M 144.160156 43.5 C 144.160156 38.726562 146.96875 35.730469 151.351562 35.730469 C 155.75 35.730469 158.546875 38.726562 158.546875 43.5 C 158.546875 48.285156 155.761719 51.269531 151.351562 51.269531 C 146.941406 51.269531 144.160156 48.285156 144.160156 43.5 Z M 155.375 43.5 C 155.375 40.226562 153.875 38.292969 151.351562 38.292969 C 148.828125 38.292969 147.332031 40.242188 147.332031 43.5 C 147.332031 46.785156 148.828125 48.703125 151.351562 48.703125 C 153.875 48.703125 155.375 46.785156 155.375 43.5 Z M 155.375 43.5 "/>
<path style=" stroke:none;fill-rule:nonzero;fill:rgb(100%,100%,100%);fill-opacity:1;" d="M 161.113281 35.914062 L 164.082031 35.914062 L 164.082031 38.496094 L 164.152344 38.496094 C 164.566406 36.835938 166.089844 35.691406 167.800781 35.757812 C 168.160156 35.757812 168.515625 35.796875 168.867188 35.875 L 168.867188 38.785156 C 168.414062 38.648438 167.941406 38.582031 167.46875 38.597656 C 166.554688 38.558594 165.667969 38.925781 165.042969 39.59375 C 164.421875 40.265625 164.121094 41.175781 164.222656 42.085938 L 164.222656 51.082031 L 161.113281 51.082031 Z M 161.113281 35.914062 "/>
<path style=" stroke:none;fill-rule:nonzero;fill:rgb(100%,100%,100%);fill-opacity:1;" d="M 183.21875 46.625 C 182.800781 49.378906 180.117188 51.269531 176.6875 51.269531 C 172.277344 51.269531 169.539062 48.3125 169.539062 43.570312 C 169.539062 38.816406 172.292969 35.730469 176.558594 35.730469 C 180.753906 35.730469 183.390625 38.613281 183.390625 43.210938 L 183.390625 44.277344 L 172.679688 44.277344 L 172.679688 44.464844 C 172.582031 45.59375 172.972656 46.710938 173.75 47.53125 C 174.53125 48.355469 175.628906 48.800781 176.761719 48.761719 C 178.269531 48.902344 179.695312 48.035156 180.261719 46.625 Z M 172.695312 42.101562 L 180.277344 42.101562 C 180.335938 41.085938 179.964844 40.09375 179.257812 39.363281 C 178.550781 38.632812 177.574219 38.230469 176.558594 38.25 C 175.535156 38.246094 174.550781 38.648438 173.824219 39.371094 C 173.101562 40.09375 172.691406 41.078125 172.695312 42.101562 Z M 172.695312 42.101562 "/>
<path style=" stroke:none;fill-rule:nonzero;fill:rgb(100%,100%,100%);fill-opacity:1;" d="M 63.359375 14.625 C 64.679688 14.53125 65.976562 15.03125 66.886719 15.996094 C 67.796875 16.957031 68.226562 18.277344 68.0625 19.589844 C 68.0625 22.785156 66.335938 24.617188 63.359375 24.617188 L 59.75 24.617188 L 59.75 14.625 Z M 61.300781 23.207031 L 63.183594 23.207031 C 64.128906 23.261719 65.050781 22.890625 65.6875 22.191406 C 66.328125 21.496094 66.621094 20.546875 66.480469 19.609375 C 66.609375 18.679688 66.3125 17.738281 65.675781 17.046875 C 65.039062 16.355469 64.125 15.984375 63.183594 16.035156 L 61.300781 16.035156 Z M 61.300781 23.207031 "/>
<path style=" stroke:none;fill-rule:nonzero;fill:rgb(100%,100%,100%);fill-opacity:1;" d="M 69.816406 20.84375 C 69.6875 19.492188 70.335938 18.183594 71.488281 17.46875 C 72.640625 16.75 74.101562 16.75 75.257812 17.46875 C 76.410156 18.183594 77.058594 19.492188 76.929688 20.84375 C 77.0625 22.199219 76.414062 23.507812 75.257812 24.226562 C 74.101562 24.945312 72.640625 24.945312 71.484375 24.226562 C 70.332031 23.507812 69.683594 22.199219 69.816406 20.84375 Z M 75.398438 20.84375 C 75.398438 19.210938 74.664062 18.253906 73.375 18.253906 C 72.082031 18.253906 71.351562 19.210938 71.351562 20.84375 C 71.351562 22.492188 72.082031 23.441406 73.375 23.441406 C 74.664062 23.441406 75.398438 22.484375 75.398438 20.84375 Z M 75.398438 20.84375 "/>
<path style=" stroke:none;fill-rule:nonzero;fill:rgb(100%,100%,100%);fill-opacity:1;" d="M 86.386719 24.617188 L 84.839844 24.617188 L 83.28125 19.0625 L 83.164062 19.0625 L 81.613281 24.617188 L 80.082031 24.617188 L 78.003906 17.078125 L 79.511719 17.078125 L 80.863281 22.832031 L 80.976562 22.832031 L 82.527344 17.078125 L 83.953125 17.078125 L 85.503906 22.832031 L 85.621094 22.832031 L 86.96875 17.078125 L 88.457031 17.078125 Z M 86.386719 24.617188 "/>
<path style=" stroke:none;fill-rule:nonzero;fill:rgb(100%,100%,100%);fill-opacity:1;" d="M 90.203125 17.078125 L 91.636719 17.078125 L 91.636719 18.273438 L 91.75 18.273438 C 92.136719 17.390625 93.039062 16.851562 94 16.929688 C 94.742188 16.875 95.472656 17.160156 95.980469 17.707031 C 96.488281 18.25 96.71875 19 96.609375 19.734375 L 96.609375 24.617188 L 95.121094 24.617188 L 95.121094 20.109375 C 95.121094 18.898438 94.59375 18.296875 93.496094 18.296875 C 92.988281 18.269531 92.5 18.46875 92.15625 18.835938 C 91.808594 19.203125 91.640625 19.703125 91.691406 20.207031 L 91.691406 24.617188 L 90.203125 24.617188 Z M 90.203125 17.078125 "/>
<path style=" stroke:none;fill-rule:nonzero;fill:rgb(100%,100%,100%);fill-opacity:1;" d="M 98.980469 14.132812 L 100.46875 14.132812 L 100.46875 24.617188 L 98.980469 24.617188 Z M 98.980469 14.132812 "/>
<path style=" stroke:none;fill-rule:nonzero;fill:rgb(100%,100%,100%);fill-opacity:1;" d="M 102.539062 20.84375 C 102.410156 19.492188 103.058594 18.183594 104.214844 17.46875 C 105.367188 16.75 106.828125 16.75 107.980469 17.46875 C 109.136719 18.183594 109.785156 19.492188 109.65625 20.84375 C 109.785156 22.199219 109.136719 23.507812 107.984375 24.226562 C 106.828125 24.945312 105.367188 24.945312 104.210938 24.226562 C 103.054688 23.507812 102.40625 22.199219 102.539062 20.84375 Z M 108.121094 20.84375 C 108.121094 19.210938 107.386719 18.253906 106.097656 18.253906 C 104.804688 18.253906 104.078125 19.210938 104.078125 20.84375 C 104.078125 22.492188 104.804688 23.441406 106.097656 23.441406 C 107.386719 23.441406 108.121094 22.484375 108.121094 20.84375 Z M 108.121094 20.84375 "/>
<path style=" stroke:none;fill-rule:nonzero;fill:rgb(100%,100%,100%);fill-opacity:1;" d="M 111.222656 22.484375 C 111.222656 21.128906 112.230469 20.34375 114.027344 20.234375 L 116.070312 20.117188 L 116.070312 19.464844 C 116.070312 18.667969 115.542969 18.21875 114.527344 18.21875 C 113.695312 18.21875 113.117188 18.523438 112.953125 19.058594 L 111.511719 19.058594 C 111.664062 17.761719 112.882812 16.929688 114.59375 16.929688 C 116.484375 16.929688 117.550781 17.871094 117.550781 19.464844 L 117.550781 24.617188 L 116.117188 24.617188 L 116.117188 23.558594 L 116 23.558594 C 115.515625 24.332031 114.648438 24.785156 113.734375 24.742188 C 113.09375 24.808594 112.457031 24.601562 111.976562 24.171875 C 111.5 23.742188 111.222656 23.128906 111.222656 22.484375 Z M 116.070312 21.839844 L 116.070312 21.210938 L 114.226562 21.328125 C 113.1875 21.398438 112.71875 21.75 112.71875 22.417969 C 112.71875 23.09375 113.308594 23.488281 114.117188 23.488281 C 114.597656 23.539062 115.074219 23.390625 115.441406 23.078125 C 115.8125 22.769531 116.039062 22.320312 116.070312 21.839844 Z M 116.070312 21.839844 "/>
<path style=" stroke:none;fill-rule:nonzero;fill:rgb(100%,100%,100%);fill-opacity:1;" d="M 119.507812 20.84375 C 119.507812 18.460938 120.734375 16.953125 122.640625 16.953125 C 123.601562 16.90625 124.503906 17.421875 124.953125 18.273438 L 125.0625 18.273438 L 125.0625 14.132812 L 126.550781 14.132812 L 126.550781 24.617188 L 125.125 24.617188 L 125.125 23.425781 L 125.007812 23.425781 C 124.523438 24.273438 123.613281 24.777344 122.640625 24.742188 C 120.71875 24.742188 119.507812 23.234375 119.507812 20.84375 Z M 121.046875 20.84375 C 121.046875 22.445312 121.800781 23.40625 123.0625 23.40625 C 124.316406 23.40625 125.089844 22.429688 125.089844 20.851562 C 125.089844 19.277344 124.308594 18.289062 123.0625 18.289062 C 121.808594 18.289062 121.046875 19.257812 121.046875 20.84375 Z M 121.046875 20.84375 "/>
<path style=" stroke:none;fill-rule:nonzero;fill:rgb(100%,100%,100%);fill-opacity:1;" d="M 132.710938 20.84375 C 132.582031 19.492188 133.230469 18.183594 134.382812 17.46875 C 135.535156 16.75 136.996094 16.75 138.152344 17.46875 C 139.304688 18.183594 139.953125 19.492188 139.824219 20.84375 C 139.957031 22.199219 139.308594 23.507812 138.152344 24.226562 C 137 24.945312 135.535156 24.945312 134.382812 24.226562 C 133.226562 23.507812 132.578125 22.199219 132.710938 20.84375 Z M 138.292969 20.84375 C 138.292969 19.210938 137.558594 18.253906 136.269531 18.253906 C 134.976562 18.253906 134.246094 19.210938 134.246094 20.84375 C 134.246094 22.492188 134.976562 23.441406 136.269531 23.441406 C 137.558594 23.441406 138.292969 22.484375 138.292969 20.84375 Z M 138.292969 20.84375 "/>
<path style=" stroke:none;fill-rule:nonzero;fill:rgb(100%,100%,100%);fill-opacity:1;" d="M 141.820312 17.078125 L 143.253906 17.078125 L 143.253906 18.273438 L 143.367188 18.273438 C 143.753906 17.390625 144.65625 16.851562 145.617188 16.929688 C 146.359375 16.875 147.089844 17.160156 147.597656 17.707031 C 148.105469 18.25 148.335938 19 148.226562 19.734375 L 148.226562 24.617188 L 146.738281 24.617188 L 146.738281 20.109375 C 146.738281 18.898438 146.210938 18.296875 145.109375 18.296875 C 144.605469 18.269531 144.117188 18.46875 143.769531 18.835938 C 143.425781 19.203125 143.257812 19.703125 143.308594 20.207031 L 143.308594 24.617188 L 141.820312 24.617188 Z M 141.820312 17.078125 "/>
<path style=" stroke:none;fill-rule:nonzero;fill:rgb(100%,100%,100%);fill-opacity:1;" d="M 156.636719 15.199219 L 156.636719 17.109375 L 158.273438 17.109375 L 158.273438 18.363281 L 156.636719 18.363281 L 156.636719 22.242188 C 156.636719 23.03125 156.964844 23.378906 157.703125 23.378906 C 157.894531 23.378906 158.082031 23.367188 158.273438 23.34375 L 158.273438 24.585938 C 158.003906 24.632812 157.734375 24.65625 157.460938 24.660156 C 155.808594 24.660156 155.148438 24.078125 155.148438 22.625 L 155.148438 18.363281 L 153.949219 18.363281 L 153.949219 17.109375 L 155.148438 17.109375 L 155.148438 15.199219 Z M 156.636719 15.199219 "/>
<path style=" stroke:none;fill-rule:nonzero;fill:rgb(100%,100%,100%);fill-opacity:1;" d="M 160.304688 14.132812 L 161.78125 14.132812 L 161.78125 18.289062 L 161.898438 18.289062 C 162.304688 17.398438 163.222656 16.859375 164.199219 16.9375 C 164.9375 16.898438 165.65625 17.1875 166.160156 17.730469 C 166.660156 18.277344 166.894531 19.015625 166.796875 19.75 L 166.796875 24.617188 L 165.304688 24.617188 L 165.304688 20.117188 C 165.304688 18.910156 164.746094 18.300781 163.691406 18.300781 C 163.175781 18.257812 162.664062 18.445312 162.296875 18.816406 C 161.933594 19.183594 161.746094 19.695312 161.792969 20.214844 L 161.792969 24.617188 L 160.304688 24.617188 Z M 160.304688 14.132812 "/>
<path style=" stroke:none;fill-rule:nonzero;fill:rgb(100%,100%,100%);fill-opacity:1;" d="M 175.476562 22.582031 C 175.058594 24.003906 173.679688 24.925781 172.207031 24.765625 C 171.199219 24.789062 170.234375 24.375 169.5625 23.625 C 168.894531 22.875 168.585938 21.867188 168.722656 20.871094 C 168.589844 19.871094 168.894531 18.863281 169.5625 18.109375 C 170.230469 17.351562 171.191406 16.921875 172.199219 16.929688 C 174.300781 16.929688 175.566406 18.363281 175.566406 20.734375 L 175.566406 21.253906 L 170.238281 21.253906 L 170.238281 21.335938 C 170.191406 21.894531 170.382812 22.449219 170.765625 22.859375 C 171.148438 23.273438 171.6875 23.503906 172.246094 23.496094 C 172.976562 23.585938 173.683594 23.222656 174.042969 22.582031 Z M 170.238281 20.152344 L 174.046875 20.152344 C 174.085938 19.640625 173.90625 19.136719 173.554688 18.761719 C 173.199219 18.390625 172.707031 18.1875 172.191406 18.199219 C 171.671875 18.191406 171.171875 18.394531 170.804688 18.761719 C 170.4375 19.128906 170.230469 19.632812 170.238281 20.152344 Z M 170.238281 20.152344 "/>
</g>
</svg>
