<?xml version="1.0" encoding="UTF-8" standalone="no"?><!DOCTYPE svg PUBLIC "-//W3C//DTD SVG 1.1//EN" "http://www.w3.org/Graphics/SVG/1.1/DTD/svg11.dtd"><svg width="100%" height="100%" viewBox="0 0 170 170" version="1.1" xmlns="http://www.w3.org/2000/svg" xmlns:xlink="http://www.w3.org/1999/xlink" xml:space="preserve" xmlns:serif="http://www.serif.com/" style="fill-rule:evenodd;clip-rule:evenodd;stroke-linejoin:round;stroke-miterlimit:2;"><g><path d="M87.184,53.391l72.7,-0c0.8,-0 1.546,-0.407 1.978,-1.08c0.433,-0.673 0.495,-1.52 0.163,-2.249c-0.942,-2.066 -1.973,-4.108 -3.065,-6.067c-0.416,-0.746 -1.202,-1.208 -2.056,-1.208l-69.72,0c-1.3,0 -2.353,1.053 -2.353,2.353l0,5.898c0,1.299 1.053,2.353 2.353,2.353Z" style="fill:#69b1bd;fill-rule:nonzero;"/><path d="M167.414,65.81c-0.25,-1.063 -1.198,-1.815 -2.291,-1.815l-77.939,0c-1.3,0 -2.353,1.053 -2.353,2.353l0,5.898c0,1.299 1.053,2.353 2.353,2.353l79.098,-0c0.69,-0 1.343,-0.302 1.79,-0.827c0.448,-0.523 0.643,-1.217 0.534,-1.897c-0.326,-2.041 -0.726,-4.081 -1.192,-6.065Z" style="fill:#69b1bd;fill-rule:nonzero;"/><path d="M87.184,32.183l58.724,-0c0.93,-0 1.773,-0.547 2.15,-1.397c0.378,-0.85 0.219,-1.843 -0.404,-2.533c-1.925,-2.131 -3.964,-4.172 -6.061,-6.067c-0.433,-0.39 -0.995,-0.606 -1.577,-0.606l-52.832,0c-1.3,0 -2.353,1.053 -2.353,2.352l0,5.899c0,1.299 1.053,2.352 2.353,2.352Z" style="fill:#69b1bd;fill-rule:nonzero;"/><path d="M87.184,127.548c0.045,0 0.091,-0.001 0.137,-0.004c21.47,-1.249 38.604,-18.382 39.854,-39.852c0.038,-0.647 -0.192,-1.28 -0.637,-1.752c-0.445,-0.471 -1.064,-0.737 -1.712,-0.737l-5.91,0c-1.237,0 -2.264,0.958 -2.348,2.192c-1.077,15.764 -13.778,28.465 -29.544,29.543c-1.235,0.084 -2.193,1.111 -2.193,2.348l0,5.909c0,0.648 0.267,1.267 0.738,1.712c0.438,0.413 1.017,0.641 1.615,0.641Z" style="fill:#ffde5f;fill-rule:nonzero;"/><path d="M87.184,148.781c0.03,0 0.06,-0.001 0.089,-0.002c33.029,-1.253 59.882,-28.106 61.135,-61.135c0.025,-0.639 -0.213,-1.26 -0.656,-1.721c-0.443,-0.461 -1.056,-0.72 -1.695,-0.72l-5.903,0c-1.26,0 -2.297,0.994 -2.35,2.254c-1.147,27.291 -23.425,49.569 -50.718,50.718c-1.26,0.053 -2.255,1.09 -2.255,2.35l0,5.904c0,0.639 0.26,1.251 0.721,1.694c0.44,0.423 1.025,0.658 1.632,0.658Z" style="fill:#ffde5f;fill-rule:nonzero;"/><path d="M168.963,85.915c-0.442,-0.456 -1.051,-0.712 -1.687,-0.712l-5.9,0c-1.271,0 -2.313,1.01 -2.351,2.281c-1.186,39.137 -32.773,70.724 -71.912,71.909c-1.272,0.039 -2.282,1.08 -2.282,2.352l0,5.902c0,0.636 0.258,1.245 0.713,1.688c0.44,0.427 1.029,0.665 1.64,0.665c0.022,0 0.044,0 0.067,-0.001c44.93,-1.264 81.114,-37.448 82.377,-82.377c0.018,-0.636 -0.222,-1.251 -0.665,-1.707Z" style="fill:#ffde5f;fill-rule:nonzero;"/><path d="M73.403,1.975c-0.429,-0.367 -0.972,-0.565 -1.528,-0.565c-0.122,0 -0.244,0.01 -0.367,0.029c-19.838,3.128 -37.991,13.3 -51.114,28.64c-13.152,15.373 -20.394,34.949 -20.394,55.124c0,20.173 7.242,39.75 20.394,55.122c13.123,15.341 31.276,25.512 51.114,28.641c0.123,0.018 0.245,0.028 0.367,0.028c0.556,-0 1.099,-0.197 1.528,-0.564c0.523,-0.448 0.825,-1.101 0.825,-1.788l-0,-162.879c-0,-0.688 -0.302,-1.342 -0.825,-1.788Z" style="fill:#6f655d;fill-rule:nonzero;"/><path d="M124.943,8.316c-9.866,-3.872 -22.219,-6.87 -33.053,-7.649c-0.026,-0.002 -0.053,-0.003 -0.081,-0.006c-0.763,-0.054 -1.54,-0.127 -2.287,-0.159l0.058,0.021c-0.439,-0.024 -0.874,-0.063 -1.314,-0.081l-0.048,-0.002l-0.086,-0.001c-1.82,-0 -3.301,1.484 -3.301,3.307l0,3.939c0,1.815 1.476,3.291 3.291,3.291l36.318,-0c0.659,-0 1.226,-0.473 1.349,-1.122c0.123,-0.65 -0.232,-1.297 -0.846,-1.538Z" style="fill:#69b1bd;fill-rule:nonzero;"/></g></svg>