<svg id="Layer_1" data-name="Layer 1" xmlns="http://www.w3.org/2000/svg" viewBox="0 0 595.28 841.89"><title>Artboard 1</title><path d="M297.5,346a75,75,0,1,1-75,75A75,75,0,0,1,297.5,346Z" style="fill:#363941;fill-rule:evenodd"/><path d="M266.6,416.2c7.6-22.3,29.5-28.7,42.2-27,4.8.6,8.3,2.4,9.1,5a4.55,4.55,0,0,1-.5,3.7c-7,12.9-28.7,17.4-50.8,18.3ZM326.5,404c.2-.3.3-.5.5-.8,15.2-27.9-51.4-42.5-70.8,10.3-.4,1-.7,1.9-1,2.9-3,0-6-.1-8.9-.2-8.9-.4-17.1-1.1-23.5-1.8-.2,2.2-.3,4.4-.3,6.7,0,1.4,0,2.9.1,4.3,6.9.8,15.1,1.5,23.8,1.8,2.3.1,4.6.2,7,.2-.9,38.6,60.8,52.5,91.5,13.2a61.66,61.66,0,0,0,5.5-8.2,5.45,5.45,0,0,0-1.8-6.9,2.51,2.51,0,0,0-.7-.4,5.48,5.48,0,0,0-7.3,2.5,49.72,49.72,0,0,1-25.5,22.2c-12.8,5-26.7,4.2-36.7-.9-8.4-4.3-14.1-11.6-14-21.1v-.5c25.8-.9,52.2-6.4,62.1-23.3Z" style="fill:#fff;fill-rule:evenodd"/></svg>